<?xml version="1.0" encoding="UTF-8"?>
<!DOCTYPE svg PUBLIC "-//W3C//DTD SVG 1.1//EN" "http://www.w3.org/Graphics/SVG/1.1/DTD/svg11.dtd">
<svg xmlns="http://www.w3.org/2000/svg" version="1.1" width="200px" height="160px" style="shape-rendering:geometricPrecision; text-rendering:geometricPrecision; image-rendering:optimizeQuality; fill-rule:evenodd; clip-rule:evenodd" xmlns:xlink="http://www.w3.org/1999/xlink">
<g><path style="opacity:0.927" fill="#000000" d="M 48.5,29.5 C 82.5016,29.3333 116.502,29.5 150.5,30C 151.667,31.1667 152.833,32.3333 154,33.5C 154.667,64.1667 154.667,94.8333 154,125.5C 152.833,126.667 151.667,127.833 150.5,129C 116.5,129.667 82.5,129.667 48.5,129C 47.3333,127.833 46.1667,126.667 45,125.5C 44.3333,94.8333 44.3333,64.1667 45,33.5C 46.3756,32.2949 47.5423,30.9616 48.5,29.5 Z M 118.5,36.5 C 122.35,36.7007 123.35,38.5341 121.5,42C 117.537,42.1177 116.537,40.2843 118.5,36.5 Z M 130.5,36.5 C 135.197,37.8743 135.531,39.8743 131.5,42.5C 127.867,41.0593 127.534,39.0593 130.5,36.5 Z M 141.5,36.5 C 146.197,37.8743 146.531,39.8743 142.5,42.5C 139.025,40.9158 138.692,38.9158 141.5,36.5 Z M 52.5,50.5 C 83.8333,50.5 115.167,50.5 146.5,50.5C 146.5,74.1667 146.5,97.8333 146.5,121.5C 115.167,121.5 83.8333,121.5 52.5,121.5C 52.5,97.8333 52.5,74.1667 52.5,50.5 Z"/></g>
<g><path style="opacity:0.914" fill="#000000" d="M 108.5,59.5 C 117.833,59.5 127.167,59.5 136.5,59.5C 136.5,66.8333 136.5,74.1667 136.5,81.5C 127.167,81.5 117.833,81.5 108.5,81.5C 108.5,74.1667 108.5,66.8333 108.5,59.5 Z"/></g>
<g><path style="opacity:0.895" fill="#000000" d="M 63.5,62.5 C 75.5,62.5 87.5,62.5 99.5,62.5C 99.5,64.1667 99.5,65.8333 99.5,67.5C 87.5,67.5 75.5,67.5 63.5,67.5C 63.5,65.8333 63.5,64.1667 63.5,62.5 Z"/></g>
<g><path style="opacity:0.746" fill="#000000" d="M 63.5,76.5 C 75.5,76.5 87.5,76.5 99.5,76.5C 99.5,78.5 99.5,80.5 99.5,82.5C 87.5,82.5 75.5,82.5 63.5,82.5C 63.5,80.5 63.5,78.5 63.5,76.5 Z"/></g>
<g><path style="opacity:0.746" fill="#000000" d="M 63.5,90.5 C 87.5,90.5 111.5,90.5 135.5,90.5C 135.5,92.5 135.5,94.5 135.5,96.5C 111.5,96.5 87.5,96.5 63.5,96.5C 63.5,94.5 63.5,92.5 63.5,90.5 Z"/></g>
<g><path style="opacity:0.746" fill="#000000" d="M 63.5,104.5 C 87.5,104.5 111.5,104.5 135.5,104.5C 135.5,106.5 135.5,108.5 135.5,110.5C 111.5,110.5 87.5,110.5 63.5,110.5C 63.5,108.5 63.5,106.5 63.5,104.5 Z"/></g>
</svg>
